<svg width="70" height="90" viewBox="0 0 70 90" fill="none" xmlns="http://www.w3.org/2000/svg">
<path d="M11 49.1633V63.8841L14.6466 66.4681L14.9262 66.2697L25.0452 59.1025L11 49.1633ZM13.0404 52.9114L21.7912 59.1077L14.6407 64.166L13.0345 63.028V52.9114H13.0404Z" fill="#0E121D"/>
<path d="M26.9904 59.567L26.3419 60.0264L15.9434 67.3868H36.7346L37.383 66.9275L38.0374 66.4681L59.0844 51.5593V36.8438L27.6388 59.1077L26.9904 59.567ZM57.0439 40.5866V50.7032L36.7583 65.0691L36.104 65.5285L36.0147 65.5911H21.7256L27.6269 61.415L28.2753 60.9556L28.9178 60.4962L57.0439 40.5866Z" fill="#13c296"/>
<path d="M14.9203 47.8532L25.0392 40.6859L11 30.7468V45.4676L14.6466 48.0463L14.9203 47.8532ZM13.0404 44.6115V34.4948L21.7912 40.6911L14.6466 45.7495L13.0404 44.6115Z" fill="#0E121D"/>
<path d="M26.9904 41.1502L26.336 41.6096L15.9434 48.97H36.7346L37.383 48.5106L38.0314 48.0512L59.0844 33.1477V18.4321L27.6388 40.6961L26.9904 41.1502ZM57.0439 22.1698V32.2864L36.7464 46.6575L36.104 47.1168L36.0147 47.1795H21.7197L27.609 43.0086L28.2693 42.544L28.9118 42.0846L57.0439 22.1698Z" fill="#13c296"/>
<path d="M14.9203 29.431L25.0392 22.2689L11 12.3298V27.0454L14.6466 29.6293L14.9203 29.431ZM13.0404 16.0726L21.7912 22.2689L14.6466 27.3272L13.0404 26.1893V16.0726Z" fill="#0E121D"/>
<path d="M27.6388 22.2639L26.9904 22.7233L26.336 23.1827L15.9434 30.5431H36.7346L37.383 30.0837L38.0374 29.6243L59.0844 14.7208V0L27.6388 22.2639ZM57.0439 13.8647L36.7583 28.2306L36.104 28.6899L36.0147 28.7526H21.7197L27.615 24.5765L28.2693 24.1119L28.9118 23.6525L57.038 3.74284V13.8647H57.0439Z" fill="#13c296"/>
<path d="M0.994189 89.7424H1.64628V86.0842H2.6405V85.478H0V86.0842H0.994189V89.7424Z" fill="#0E121D"/>
<path d="M6.06154 89.7423L6.54262 88.7092H8.39202L8.84637 89.7423H9.5626L7.49939 85.2091L5.36133 89.7423H6.06154ZM7.48869 86.6534L8.13011 88.103H6.81522L7.48869 86.6534Z" fill="#0E121D"/>
<path d="M14.8274 86.005C15.3351 86.005 15.7681 86.237 16.1262 86.7061L16.5912 86.2686C16.3186 85.9629 16.046 85.7415 15.7628 85.6044C15.4688 85.4674 15.1534 85.3989 14.8166 85.3989C14.1859 85.3989 13.6514 85.615 13.2131 86.0472C12.7748 86.4795 12.5557 87.0013 12.5557 87.6233C12.5557 88.2295 12.7694 88.7461 13.2024 89.1836C13.6354 89.6158 14.1539 89.8319 14.7579 89.8319C15.3779 89.8319 15.8857 89.6105 16.2919 89.1625C16.4683 88.9622 16.5966 88.7513 16.6714 88.5194C16.7463 88.2717 16.7837 87.987 16.7837 87.6707V87.5284H14.9984V88.1346H16.0781C16.046 88.4351 15.9071 88.6933 15.6505 88.9095C15.3939 89.1256 15.1053 89.231 14.7846 89.231C14.4051 89.231 14.0576 89.0887 13.7369 88.804C13.3895 88.4983 13.2185 88.103 13.2185 87.6286C13.2185 87.17 13.3735 86.7852 13.6835 86.4795C13.9882 86.1579 14.373 86.005 14.8274 86.005Z" fill="#0E121D"/>
<path d="M20.9902 85.478V89.7424H22.9145V89.1362H21.6424V85.478H20.9902Z" fill="#0E121D"/>
<path d="M27.0515 85.4781H26.3994V89.7425H27.0515V85.4781Z" fill="#0E121D"/>
<path d="M30.959 89.7423H31.6111V86.7588L34.7647 90.0005V85.4779H34.1126V88.4403L30.959 85.188V89.7423Z" fill="#0E121D"/>
<path d="M38.6719 89.7425H41.0558V89.1363H39.324V87.7131H41.0077V87.107H39.324V86.0843H41.0558V85.4781H38.6719V89.7425Z" fill="#0E121D"/>
<path d="M50.624 87.1491H48.7639V85.4781H48.1064V89.7425H48.7639V87.75H50.624V89.7425H51.2815V85.4781H50.624V87.1491Z" fill="#0E121D"/>
<path d="M57.5675 86.0843V85.4781H55.1836V89.7425H57.5675V89.1363H55.8357V87.7131H57.5194V87.107H55.8357V86.0843H57.5675Z" fill="#0E121D"/>
<path d="M62.7575 87.9239C63.0462 87.8606 63.276 87.7236 63.4524 87.5022C63.6288 87.2861 63.7143 87.0278 63.7143 86.722C63.7143 86.3372 63.5753 86.0263 63.2974 85.7891C63.0408 85.5782 62.6293 85.4728 62.0573 85.4728H61.293V89.7372H61.9451V87.9924H62.0627L63.2974 89.7372H64.0992L62.7575 87.9239ZM61.9451 87.4389V86.0842H62.1802C62.7789 86.0842 63.0836 86.3056 63.0836 86.7379C63.0836 87.2017 62.7736 87.4389 62.1535 87.4389H61.9451Z" fill="#0E121D"/>
<path d="M70.0001 86.0842V85.478H67.6162V89.7424H70.0001V89.1362H68.2683V87.713H69.952V87.1068H68.2683V86.0842H70.0001Z" fill="#0E121D"/>
<path d="M1.18086 80.0379C1.54968 80.391 1.98264 80.6651 2.49043 80.8602C2.99822 81.0552 3.55412 81.1501 4.16346 81.1501C4.74074 81.1501 5.28594 81.0394 5.79373 80.8233C6.30686 80.6019 6.73981 80.254 7.09259 79.7743L5.93805 78.9626C5.67614 79.2894 5.39819 79.5318 5.09886 79.6794C4.79953 79.827 4.48953 79.9061 4.17416 79.9061C3.76793 79.9061 3.39911 79.8323 3.06771 79.6847C2.73632 79.5371 2.45301 79.3368 2.21782 79.0838C1.98264 78.8308 1.79557 78.525 1.66729 78.1772C1.53901 77.8293 1.47484 77.4444 1.47484 77.028C1.47484 76.6432 1.53901 76.2795 1.66729 75.9422C1.79557 75.6048 1.97729 75.3149 2.21782 75.0619C2.45301 74.8089 2.73632 74.6138 3.06771 74.4715C3.39911 74.3292 3.76793 74.2554 4.17416 74.2554C4.44677 74.2554 4.71935 74.3081 4.99195 74.4082C5.26456 74.5084 5.54251 74.714 5.83115 75.0197L6.92154 74.229C6.53135 73.7863 6.10377 73.47 5.64943 73.2802C5.19509 73.0957 4.69798 73.0009 4.16881 73.0009C3.55947 73.0009 3.00357 73.0957 2.49578 73.2908C1.98799 73.4858 1.54968 73.7599 1.18621 74.1183C0.817398 74.4768 0.534113 74.909 0.325653 75.415C0.117192 75.9211 0.015625 76.4851 0.015625 77.1071C0.015625 77.7133 0.117192 78.2668 0.325653 78.7622C0.528768 79.2577 0.817393 79.6847 1.18086 80.0379Z" fill="#0E121D"/>
<path d="M11.0114 80.0378C11.3802 80.391 11.8132 80.6651 12.321 80.8602C12.8288 81.0552 13.3847 81.1501 13.994 81.1501C14.6087 81.1448 15.1699 81.0394 15.6831 80.8391C16.1962 80.6388 16.6345 80.3594 17.0033 80.0009C17.3721 79.6425 17.6608 79.2155 17.8692 78.7201C18.0777 78.2246 18.1792 77.6711 18.1792 77.0649C18.1792 76.4429 18.0777 75.8842 17.8692 75.3781C17.6608 74.8721 17.3721 74.4451 17.0033 74.0867C16.6345 73.7283 16.1908 73.4594 15.6831 73.2697C15.1699 73.0852 14.6087 72.9956 13.994 73.0008C13.3847 73.0008 12.8288 73.0957 12.321 73.2907C11.8132 73.4858 11.3749 73.7599 11.0114 74.1183C10.6426 74.4768 10.3593 74.909 10.1508 75.415C9.94239 75.9211 9.84082 76.4851 9.84082 77.1071C9.84082 77.7133 9.94239 78.2667 10.1508 78.7622C10.3593 79.2577 10.6426 79.6847 11.0114 80.0378ZM11.4978 75.9369C11.6261 75.5995 11.8078 75.3096 12.0484 75.0566C12.2836 74.8036 12.5669 74.6085 12.8983 74.4662C13.2297 74.3239 13.5931 74.2501 14.0047 74.2501C14.4109 74.2501 14.7797 74.3239 15.1165 74.4662C15.4479 74.6085 15.7365 74.8036 15.9717 75.0566C16.2069 75.3096 16.394 75.6048 16.5223 75.9369C16.6505 76.2742 16.7147 76.6327 16.7147 77.0227C16.7147 77.4392 16.6505 77.824 16.5223 78.1718C16.394 78.5197 16.2069 78.8255 15.9717 79.0785C15.7365 79.3315 15.4479 79.5371 15.1165 79.6794C14.7851 79.827 14.4109 79.9008 14.0047 79.9008C13.5984 79.9008 13.2297 79.827 12.8983 79.6794C12.5669 79.5318 12.2836 79.3315 12.0484 79.0785C11.8132 78.8255 11.6261 78.5197 11.4978 78.1718C11.3695 77.824 11.3054 77.4392 11.3054 77.0227C11.3054 76.6327 11.3695 76.2742 11.4978 75.9369Z" fill="#0E121D"/>
<path d="M23.8983 73.2013H21.7656V80.9552H23.0966V74.5138H23.118L25.5072 80.9552H26.4854L28.8693 74.5138H28.8961V80.9552H30.227V73.2013H28.1157L25.9937 78.6306L23.8983 73.2013Z" fill="#0E121D"/>
<path d="M35.6363 77.7449H36.6358C37.0527 77.7449 37.4483 77.7133 37.8278 77.6553C38.2073 77.5973 38.544 77.4867 38.8327 77.3232C39.1213 77.1598 39.3512 76.9279 39.5222 76.6275C39.6933 76.327 39.7788 75.9317 39.7788 75.4467C39.7788 75.0145 39.6986 74.656 39.5382 74.3661C39.3779 74.0762 39.1641 73.8496 38.9022 73.6756C38.6349 73.5017 38.3249 73.3804 37.9775 73.3066C37.6247 73.2328 37.2612 73.1959 36.8817 73.1959H34.2412V80.9498H35.6416V77.7449H35.6363ZM35.6363 74.3819H36.6358C36.8229 74.3819 37.0153 74.3925 37.2131 74.4136C37.4109 74.4346 37.5926 74.4874 37.7583 74.5612C37.9186 74.6402 38.0523 74.7456 38.1592 74.888C38.2607 75.0303 38.3142 75.22 38.3142 75.4625C38.3142 75.7261 38.2554 75.9317 38.1432 76.074C38.0256 76.2216 37.8812 76.327 37.6995 76.4008C37.5178 76.4746 37.32 76.5168 37.1062 76.5326C36.8924 76.5484 36.6839 76.5537 36.4861 76.5537H35.6416V74.3819H35.6363Z" fill="#0E121D"/>
<path d="M43.82 79.1789H47.2302L47.9625 80.9553H49.5607L46.1719 73.2014H44.9639L41.543 80.9553H43.1091L43.82 79.1789ZM45.5305 74.8407L46.7385 77.9929H44.2957L45.5305 74.8407Z" fill="#0E121D"/>
<path d="M52.6553 73.2013V80.9552H54.0557V75.0093H54.0771L57.963 80.9552H59.7429V73.2013H58.3425V78.9574H58.3211L54.5101 73.2013H52.6553Z" fill="#0E121D"/>
<path d="M65.6385 80.9553H67.0389V77.6345L69.9895 73.2014H68.3271L66.3708 76.2903L64.4358 73.2014H62.6826L65.6385 77.6345V80.9553Z" fill="#0E121D"/>
</svg>
