<svg width="70" height="90" viewBox="0 0 70 90" fill="none" xmlns="http://www.w3.org/2000/svg">
<path d="M0.994189 89.7424H1.64628V86.0842H2.6405V85.478H0V86.0842H0.994189V89.7424Z" fill="#0E121D"/>
<path d="M6.06154 89.7423L6.54262 88.7091H8.39202L8.84637 89.7423H9.5626L7.49939 85.209L5.36133 89.7423H6.06154ZM7.48869 86.6533L8.13011 88.1029H6.81522L7.48869 86.6533Z" fill="#0E121D"/>
<path d="M14.8274 86.0051C15.3351 86.0051 15.7681 86.237 16.1262 86.7062L16.5912 86.2687C16.3186 85.9629 16.046 85.7416 15.7628 85.6045C15.4688 85.4675 15.1534 85.3989 14.8166 85.3989C14.1859 85.3989 13.6514 85.615 13.2131 86.0473C12.7748 86.4795 12.5557 87.0014 12.5557 87.6234C12.5557 88.2295 12.7694 88.7461 13.2024 89.1836C13.6354 89.6159 14.1539 89.832 14.7579 89.832C15.3779 89.832 15.8857 89.6106 16.2919 89.1626C16.4683 88.9622 16.5966 88.7514 16.6714 88.5195C16.7463 88.2717 16.7837 87.9871 16.7837 87.6708V87.5285H14.9984V88.1347H16.0781C16.046 88.4351 15.9071 88.6934 15.6505 88.9095C15.3939 89.1256 15.1053 89.2311 14.7846 89.2311C14.4051 89.2311 14.0576 89.0887 13.7369 88.8041C13.3895 88.4984 13.2185 88.103 13.2185 87.6286C13.2185 87.17 13.3735 86.7853 13.6835 86.4795C13.9882 86.158 14.373 86.0051 14.8274 86.0051Z" fill="#0E121D"/>
<path d="M20.9902 85.478V89.7424H22.9145V89.1362H21.6424V85.478H20.9902Z" fill="#0E121D"/>
<path d="M27.0515 85.478H26.3994V89.7424H27.0515V85.478Z" fill="#0E121D"/>
<path d="M30.959 89.7424H31.6111V86.7589L34.7647 90.0006V85.478H34.1126V88.4404L30.959 85.188V89.7424Z" fill="#0E121D"/>
<path d="M38.6719 89.7424H41.0558V89.1362H39.324V87.713H41.0077V87.1068H39.324V86.0842H41.0558V85.478H38.6719V89.7424Z" fill="#0E121D"/>
<path d="M50.624 87.149H48.7639V85.478H48.1064V89.7424H48.7639V87.7499H50.624V89.7424H51.2815V85.478H50.624V87.149Z" fill="#0E121D"/>
<path d="M57.5675 86.0842V85.478H55.1836V89.7424H57.5675V89.1362H55.8357V87.713H57.5194V87.1068H55.8357V86.0842H57.5675Z" fill="#0E121D"/>
<path d="M62.7575 87.9237C63.0462 87.8605 63.276 87.7235 63.4524 87.5021C63.6288 87.2859 63.7143 87.0276 63.7143 86.7219C63.7143 86.3371 63.5753 86.0261 63.2974 85.7889C63.0408 85.5781 62.6293 85.4727 62.0573 85.4727H61.293V89.737H61.9451V87.9923H62.0627L63.2974 89.737H64.0992L62.7575 87.9237ZM61.9451 87.4388V86.0841H62.1802C62.7789 86.0841 63.0836 86.3055 63.0836 86.7377C63.0836 87.2016 62.7736 87.4388 62.1535 87.4388H61.9451Z" fill="#0E121D"/>
<path d="M70.0001 86.0842V85.478H67.6162V89.7424H70.0001V89.1362H68.2683V87.713H69.952V87.1068H68.2683V86.0842H70.0001Z" fill="#0E121D"/>
<path d="M1.18086 80.0379C1.54968 80.3911 1.98264 80.6652 2.49043 80.8602C2.99822 81.0553 3.55412 81.1501 4.16346 81.1501C4.74074 81.1501 5.28594 81.0395 5.79373 80.8233C6.30686 80.6019 6.73981 80.2541 7.09259 79.7744L5.93805 78.9626C5.67614 79.2894 5.39819 79.5319 5.09886 79.6795C4.79953 79.8271 4.48953 79.9062 4.17416 79.9062C3.76793 79.9062 3.39911 79.8324 3.06771 79.6848C2.73632 79.5372 2.45301 79.3369 2.21782 79.0839C1.98264 78.8308 1.79557 78.5251 1.66729 78.1772C1.53901 77.8293 1.47484 77.4445 1.47484 77.0281C1.47484 76.6433 1.53901 76.2796 1.66729 75.9422C1.79557 75.6049 1.97729 75.315 2.21782 75.0619C2.45301 74.8089 2.73632 74.6139 3.06771 74.4716C3.39911 74.3293 3.76793 74.2555 4.17416 74.2555C4.44677 74.2555 4.71935 74.3082 4.99195 74.4083C5.26456 74.5085 5.54251 74.714 5.83115 75.0198L6.92154 74.2291C6.53135 73.7863 6.10377 73.47 5.64943 73.2803C5.19509 73.0958 4.69798 73.0009 4.16881 73.0009C3.55947 73.0009 3.00357 73.0958 2.49578 73.2908C1.98799 73.4859 1.54968 73.76 1.18621 74.1184C0.817398 74.4768 0.534113 74.9091 0.325653 75.4151C0.117192 75.9211 0.015625 76.4852 0.015625 77.1072C0.015625 77.7133 0.117192 78.2668 0.325653 78.7623C0.528768 79.2578 0.817393 79.6848 1.18086 80.0379Z" fill="#0E121D"/>
<path d="M11.0114 80.0379C11.3802 80.3911 11.8132 80.6652 12.321 80.8602C12.8288 81.0552 13.3847 81.1501 13.994 81.1501C14.6087 81.1448 15.1699 81.0394 15.6831 80.8391C16.1962 80.6388 16.6345 80.3594 17.0033 80.001C17.3721 79.6426 17.6608 79.2156 17.8692 78.7201C18.0777 78.2246 18.1792 77.6711 18.1792 77.065C18.1792 76.443 18.0777 75.8842 17.8692 75.3782C17.6608 74.8722 17.3721 74.4452 17.0033 74.0868C16.6345 73.7283 16.1908 73.4595 15.6831 73.2697C15.1699 73.0852 14.6087 72.9956 13.994 73.0009C13.3847 73.0009 12.8288 73.0958 12.321 73.2908C11.8132 73.4858 11.3749 73.7599 11.0114 74.1184C10.6426 74.4768 10.3593 74.909 10.1508 75.4151C9.94239 75.9211 9.84082 76.4851 9.84082 77.1071C9.84082 77.7133 9.94239 78.2668 10.1508 78.7623C10.3593 79.2578 10.6426 79.6847 11.0114 80.0379ZM11.4978 75.9369C11.6261 75.5996 11.8078 75.3097 12.0484 75.0566C12.2836 74.8036 12.5669 74.6086 12.8983 74.4663C13.2297 74.324 13.5931 74.2502 14.0047 74.2502C14.4109 74.2502 14.7797 74.324 15.1165 74.4663C15.4479 74.6086 15.7365 74.8036 15.9717 75.0566C16.2069 75.3097 16.394 75.6049 16.5223 75.9369C16.6505 76.2743 16.7147 76.6327 16.7147 77.0228C16.7147 77.4392 16.6505 77.824 16.5223 78.1719C16.394 78.5198 16.2069 78.8255 15.9717 79.0786C15.7365 79.3316 15.4479 79.5371 15.1165 79.6795C14.7851 79.8271 14.4109 79.9009 14.0047 79.9009C13.5984 79.9009 13.2297 79.8271 12.8983 79.6795C12.5669 79.5319 12.2836 79.3316 12.0484 79.0786C11.8132 78.8255 11.6261 78.5198 11.4978 78.1719C11.3695 77.824 11.3054 77.4392 11.3054 77.0228C11.3054 76.6327 11.3695 76.2743 11.4978 75.9369Z" fill="#0E121D"/>
<path d="M23.8983 73.2015H21.7656V80.9554H23.0966V74.514H23.118L25.5072 80.9554H26.4854L28.8693 74.514H28.8961V80.9554H30.227V73.2015H28.1157L25.9937 78.6308L23.8983 73.2015Z" fill="#0E121D"/>
<path d="M35.6363 77.745H36.6358C37.0527 77.745 37.4483 77.7134 37.8278 77.6554C38.2073 77.5974 38.544 77.4867 38.8327 77.3233C39.1213 77.1599 39.3512 76.928 39.5222 76.6275C39.6933 76.3271 39.7788 75.9317 39.7788 75.4468C39.7788 75.0145 39.6986 74.6561 39.5382 74.3662C39.3779 74.0763 39.1641 73.8496 38.9022 73.6757C38.6349 73.5017 38.3249 73.3805 37.9775 73.3067C37.6247 73.2329 37.2612 73.196 36.8817 73.196H34.2412V80.9499H35.6416V77.745H35.6363ZM35.6363 74.382H36.6358C36.8229 74.382 37.0153 74.3925 37.2131 74.4136C37.4109 74.4347 37.5926 74.4874 37.7583 74.5612C37.9186 74.6403 38.0523 74.7457 38.1592 74.888C38.2607 75.0303 38.3142 75.2201 38.3142 75.4626C38.3142 75.7261 38.2554 75.9317 38.1432 76.074C38.0256 76.2216 37.8812 76.3271 37.6995 76.4009C37.5178 76.4746 37.32 76.5168 37.1062 76.5326C36.8924 76.5484 36.6839 76.5537 36.4861 76.5537H35.6416V74.382H35.6363Z" fill="#0E121D"/>
<path d="M43.82 79.179H47.2302L47.9625 80.9554H49.5607L46.1719 73.2015H44.9639L41.543 80.9554H43.1091L43.82 79.179ZM45.5305 74.8408L46.7385 77.993H44.2957L45.5305 74.8408Z" fill="#0E121D"/>
<path d="M52.6553 73.2015V80.9554H54.0557V75.0095H54.0771L57.963 80.9554H59.7429V73.2015H58.3425V78.9576H58.3211L54.5101 73.2015H52.6553Z" fill="#0E121D"/>
<path d="M65.6385 80.9554H67.0389V77.6345L69.9895 73.2015H68.3271L66.3708 76.2904L64.4358 73.2015H62.6826L65.6385 77.6345V80.9554Z" fill="#0E121D"/>
<path d="M47.2304 34.5923V44.5148H22.1777C21.5219 44.5148 20.8838 44.4545 20.2634 44.334C20.1748 44.3163 20.0862 44.295 19.9976 44.2773C18.6008 43.9724 17.314 43.3804 16.1937 42.565C13.6555 40.711 12 37.719 12 34.3441V0C17.0339 2.86437 20.2634 8.26698 20.2634 14.1907V30.4411C20.2634 33.6493 22.869 36.2549 26.0773 36.2549H43.1642C44.7453 36.2549 46.1811 35.6203 47.2304 34.5923Z" fill="#0E121D"/>
<path d="M57.2388 0V19.1715C55.4592 16.5411 52.6763 14.6197 49.3795 13.9922C49.2483 13.9674 49.1171 13.9426 48.9824 13.9248C49.0746 8.10391 52.2828 2.82183 57.2388 0Z" fill="#0E121D"/>
<path d="M57.2386 26.0772V60.4142C52.2082 57.5498 48.9787 52.1472 48.9787 46.2235V29.9731C48.9787 26.7684 46.3695 24.1593 43.1648 24.1593H26.0778C24.4968 24.1593 23.061 24.7939 22.0117 25.8219V15.8994H47.0644C47.7202 15.8994 48.3583 15.9597 48.9787 16.0802C53.6758 16.9771 57.2386 21.1177 57.2386 26.0772Z" fill="#13c296"/>
<path d="M20.2599 46.4894C20.1677 52.3103 16.9595 57.5924 12 60.4142V41.2357C12.787 42.3984 13.7796 43.4336 14.9424 44.2808C16.3249 45.2912 17.8741 45.9895 19.5402 46.3547L19.597 46.3688C19.6856 46.3866 19.7742 46.4043 19.8593 46.422C19.9905 46.4468 20.1252 46.4716 20.2599 46.4894Z" fill="#13c296"/>
</svg>
