<svg width="70" height="90" viewBox="0 0 70 90" fill="none" xmlns="http://www.w3.org/2000/svg">
<path d="M17.7167 23.0877H18.9458V24.3151V43.2894L24.5277 37.7151V17.5133H5.006L5 57.2163L10.5819 51.642V24.3151V23.0877H11.817H17.7167Z" fill="#0E121D"/>
<path d="M39.7084 45.0499H40.9435V46.2833V52.169V53.4025H39.7084H15.1864L9.60449 58.9768L46.5195 58.9708V39.4756H29.1322L23.5503 45.0499H39.7084Z" fill="#13c296"/>
<path d="M58.4808 22.1775V23.4109H57.2517H45.2185L39.6426 28.9793H64.0567V4.59824L58.4808 10.1666V22.1775Z" fill="#0E121D"/>
<path d="M56.7182 5.56837L62.2941 0H35.0381V27.2131L40.62 21.6448V6.80179V5.56837H41.8491H56.7182Z" fill="#13c296"/>
<path d="M0.994189 89.7422H1.64628V86.0889H2.6405V85.4836H0V86.0889H0.994189V89.7422Z" fill="#0E121D"/>
<path d="M6.06154 89.7419L6.54262 88.7101H8.39202L8.84637 89.7419H9.5626L7.49939 85.2148L5.36133 89.7419H6.06154ZM7.48869 86.6572L8.13011 88.1048H6.81522L7.48869 86.6572Z" fill="#0E121D"/>
<path d="M14.8274 86.0099C15.3351 86.0099 15.7681 86.2416 16.1262 86.7101L16.5912 86.2731C16.3186 85.9678 16.046 85.7467 15.7628 85.6099C15.4688 85.473 15.1534 85.4046 14.8166 85.4046C14.1859 85.4046 13.6514 85.6204 13.2131 86.0521C12.7748 86.4837 12.5557 87.0048 12.5557 87.626C12.5557 88.2314 12.7694 88.7472 13.2024 89.1841C13.6354 89.6158 14.1539 89.8316 14.7579 89.8316C15.3779 89.8316 15.8857 89.6105 16.2919 89.1631C16.4683 88.9631 16.5966 88.7525 16.6714 88.5209C16.7463 88.2735 16.7837 87.9892 16.7837 87.6734V87.5312H14.9984V88.1366H16.0781C16.046 88.4367 15.9071 88.6946 15.6505 88.9104C15.3939 89.1262 15.1053 89.2315 14.7846 89.2315C14.4051 89.2315 14.0576 89.0894 13.7369 88.8051C13.3895 88.4998 13.2185 88.105 13.2185 87.6313C13.2185 87.1733 13.3735 86.789 13.6835 86.4837C13.9882 86.1626 14.373 86.0099 14.8274 86.0099Z" fill="#0E121D"/>
<path d="M20.9902 85.4836V89.7422H22.9145V89.1368H21.6424V85.4836H20.9902Z" fill="#0E121D"/>
<path d="M27.0515 85.4834H26.3994V89.742H27.0515V85.4834Z" fill="#0E121D"/>
<path d="M30.959 89.742H31.6111V86.7626L34.7647 90V85.4834H34.1126V88.4418L30.959 85.1939V89.742Z" fill="#0E121D"/>
<path d="M38.6719 89.742H41.0558V89.1366H39.324V87.7154H41.0077V87.11H39.324V86.0888H41.0558V85.4834H38.6719V89.742Z" fill="#0E121D"/>
<path d="M50.624 87.1521H48.7639V85.4834H48.1064V89.742H48.7639V87.7522H50.624V89.742H51.2815V85.4834H50.624V87.1521Z" fill="#0E121D"/>
<path d="M57.5675 86.0888V85.4834H55.1836V89.742H57.5675V89.1366H55.8357V87.7154H57.5194V87.11H55.8357V86.0888H57.5675Z" fill="#0E121D"/>
<path d="M62.7575 87.9258C63.0462 87.8626 63.276 87.7258 63.4524 87.5047C63.6288 87.2889 63.7143 87.0309 63.7143 86.7256C63.7143 86.3413 63.5753 86.0308 63.2974 85.7939C63.0408 85.5833 62.6293 85.478 62.0573 85.478H61.293V89.7366H61.9451V87.9942H62.0627L63.2974 89.7366H64.0992L62.7575 87.9258ZM61.9451 87.4415V86.0887H62.1802C62.7789 86.0887 63.0836 86.3097 63.0836 86.7414C63.0836 87.2046 62.7736 87.4415 62.1535 87.4415H61.9451Z" fill="#0E121D"/>
<path d="M70.0001 86.0889V85.4836H67.6162V89.7422H70.0001V89.1368H68.2683V87.7155H69.952V87.1101H68.2683V86.0889H70.0001Z" fill="#0E121D"/>
<path d="M1.18086 80.0497C1.54968 80.4024 1.98264 80.6761 2.49043 80.8709C2.99822 81.0657 3.55412 81.1604 4.16346 81.1604C4.74074 81.1604 5.28594 81.0499 5.79373 80.834C6.30686 80.6129 6.73981 80.2655 7.09259 79.7865L5.93805 78.9758C5.67614 79.3022 5.39819 79.5443 5.09886 79.6917C4.79953 79.8391 4.48953 79.9181 4.17416 79.9181C3.76793 79.9181 3.39911 79.8444 3.06771 79.697C2.73632 79.5496 2.45301 79.3496 2.21782 79.0969C1.98264 78.8442 1.79557 78.5389 1.66729 78.1915C1.53901 77.8441 1.47484 77.4598 1.47484 77.0439C1.47484 76.6597 1.53901 76.2964 1.66729 75.9595C1.79557 75.6226 1.97729 75.3331 2.21782 75.0805C2.45301 74.8278 2.73632 74.633 3.06771 74.4909C3.39911 74.3488 3.76793 74.2751 4.17416 74.2751C4.44677 74.2751 4.71935 74.3277 4.99195 74.4277C5.26456 74.5277 5.54251 74.733 5.83115 75.0383L6.92154 74.2487C6.53135 73.8065 6.10377 73.4907 5.64943 73.3012C5.19509 73.117 4.69798 73.0222 4.16881 73.0222C3.55947 73.0222 3.00357 73.117 2.49578 73.3117C1.98799 73.5065 1.54968 73.7802 1.18621 74.1382C0.817398 74.4961 0.534113 74.9278 0.325653 75.4331C0.117192 75.9385 0.015625 76.5017 0.015625 77.1229C0.015625 77.7283 0.117192 78.281 0.325653 78.7758C0.528768 79.2706 0.817393 79.697 1.18086 80.0497Z" fill="#0E121D"/>
<path d="M11.0114 80.0497C11.3802 80.4024 11.8132 80.6761 12.321 80.8709C12.8288 81.0656 13.3847 81.1604 13.994 81.1604C14.6087 81.1551 15.1699 81.0498 15.6831 80.8498C16.1962 80.6498 16.6345 80.3708 17.0033 80.0128C17.3721 79.6549 17.6608 79.2285 17.8692 78.7337C18.0777 78.2388 18.1792 77.6861 18.1792 77.0808C18.1792 76.4596 18.0777 75.9016 17.8692 75.3963C17.6608 74.8909 17.3721 74.4645 17.0033 74.1066C16.6345 73.7486 16.1908 73.4802 15.6831 73.2907C15.1699 73.1064 14.6087 73.0169 13.994 73.0222C13.3847 73.0222 12.8288 73.1169 12.321 73.3117C11.8132 73.5065 11.3749 73.7802 11.0114 74.1382C10.6426 74.4961 10.3593 74.9278 10.1508 75.4331C9.94239 75.9385 9.84082 76.5017 9.84082 77.1229C9.84082 77.7282 9.94239 78.281 10.1508 78.7758C10.3593 79.2706 10.6426 79.697 11.0114 80.0497ZM11.4978 75.9543C11.6261 75.6174 11.8078 75.3278 12.0484 75.0752C12.2836 74.8225 12.5669 74.6277 12.8983 74.4856C13.2297 74.3435 13.5931 74.2698 14.0047 74.2698C14.4109 74.2698 14.7797 74.3435 15.1165 74.4856C15.4479 74.6277 15.7365 74.8225 15.9717 75.0752C16.2069 75.3278 16.394 75.6226 16.5223 75.9543C16.6505 76.2912 16.7147 76.6491 16.7147 77.0386C16.7147 77.4545 16.6505 77.8388 16.5223 78.1862C16.394 78.5336 16.2069 78.8389 15.9717 79.0916C15.7365 79.3443 15.4479 79.5496 15.1165 79.6917C14.7851 79.8391 14.4109 79.9128 14.0047 79.9128C13.5984 79.9128 13.2297 79.8391 12.8983 79.6917C12.5669 79.5443 12.2836 79.3443 12.0484 79.0916C11.8132 78.8389 11.6261 78.5336 11.4978 78.1862C11.3695 77.8388 11.3054 77.4545 11.3054 77.0386C11.3054 76.6491 11.3695 76.2912 11.4978 75.9543Z" fill="#0E121D"/>
<path d="M23.8983 73.2225H21.7656V80.9659H23.0966V74.5332H23.118L25.5072 80.9659H26.4854L28.8693 74.5332H28.8961V80.9659H30.227V73.2225H28.1157L25.9937 78.6444L23.8983 73.2225Z" fill="#0E121D"/>
<path d="M35.6363 77.7597H36.6358C37.0527 77.7597 37.4483 77.7281 37.8278 77.6702C38.2073 77.6123 38.544 77.5017 38.8327 77.3385C39.1213 77.1753 39.3512 76.9437 39.5222 76.6437C39.6933 76.3436 39.7788 75.9488 39.7788 75.4645C39.7788 75.0329 39.6986 74.6749 39.5382 74.3854C39.3779 74.0959 39.1641 73.8695 38.9022 73.6958C38.6349 73.5221 38.3249 73.401 37.9775 73.3273C37.6247 73.2536 37.2612 73.2168 36.8817 73.2168H34.2412V80.9602H35.6416V77.7597H35.6363ZM35.6363 74.4012H36.6358C36.8229 74.4012 37.0153 74.4117 37.2131 74.4328C37.4109 74.4538 37.5926 74.5065 37.7583 74.5802C37.9186 74.6591 38.0523 74.7644 38.1592 74.9065C38.2607 75.0487 38.3142 75.2382 38.3142 75.4803C38.3142 75.7435 38.2554 75.9488 38.1432 76.091C38.0256 76.2383 37.8812 76.3436 37.6995 76.4173C37.5178 76.491 37.32 76.5331 37.1062 76.5489C36.8924 76.5647 36.6839 76.57 36.4861 76.57H35.6416V74.4012H35.6363Z" fill="#0E121D"/>
<path d="M43.819 79.1919H47.2292L47.9615 80.9659H49.5597L46.1709 73.2225H44.9629L41.542 80.9659H43.1081L43.819 79.1919ZM45.5295 74.8596L46.7375 78.0075H44.2948L45.5295 74.8596Z" fill="#0E121D"/>
<path d="M52.6553 73.2225V80.9659H54.0557V75.0281H54.0771L57.963 80.9659H59.7429V73.2225H58.3425V78.9708H58.3211L54.5101 73.2225H52.6553Z" fill="#0E121D"/>
<path d="M65.6385 80.9659H67.0389V77.6496L69.9895 73.2225H68.3271L66.3708 76.3072L64.4358 73.2225H62.6826L65.6385 77.6496V80.9659Z" fill="#0E121D"/>
</svg>
