<svg width="70" height="90" viewBox="0 0 70 90" fill="none" xmlns="http://www.w3.org/2000/svg">
<path d="M0.994189 89.7424H1.64628V86.0842H2.6405V85.478H0V86.0842H0.994189V89.7424Z" fill="#0E121D"/>
<path d="M6.06154 89.7421L6.54262 88.709H8.39202L8.84637 89.7421H9.5626L7.49939 85.2089L5.36133 89.7421H6.06154ZM7.48869 86.6532L8.13011 88.1028H6.81522L7.48869 86.6532Z" fill="#0E121D"/>
<path d="M14.8274 86.005C15.3351 86.005 15.7681 86.237 16.1262 86.7061L16.5912 86.2686C16.3186 85.9629 16.046 85.7415 15.7628 85.6044C15.4688 85.4674 15.1534 85.3989 14.8166 85.3989C14.1859 85.3989 13.6514 85.615 13.2131 86.0472C12.7748 86.4795 12.5557 87.0013 12.5557 87.6233C12.5557 88.2295 12.7694 88.7461 13.2024 89.1836C13.6354 89.6158 14.1539 89.8319 14.7579 89.8319C15.3779 89.8319 15.8857 89.6105 16.2919 89.1625C16.4683 88.9622 16.5966 88.7513 16.6714 88.5194C16.7463 88.2717 16.7837 87.987 16.7837 87.6707V87.5284H14.9984V88.1346H16.0781C16.046 88.4351 15.9071 88.6933 15.6505 88.9095C15.3939 89.1256 15.1053 89.231 14.7846 89.231C14.4051 89.231 14.0576 89.0887 13.7369 88.804C13.3895 88.4983 13.2185 88.103 13.2185 87.6286C13.2185 87.17 13.3735 86.7852 13.6835 86.4795C13.9882 86.1579 14.373 86.005 14.8274 86.005Z" fill="#0E121D"/>
<path d="M20.9902 85.478V89.7424H22.9145V89.1362H21.6424V85.478H20.9902Z" fill="#0E121D"/>
<path d="M27.0515 85.4781H26.3994V89.7425H27.0515V85.4781Z" fill="#0E121D"/>
<path d="M30.959 89.7422H31.6111V86.7587L34.7647 90.0005V85.4778H34.1126V88.4402L30.959 85.1879V89.7422Z" fill="#0E121D"/>
<path d="M38.6719 89.7425H41.0558V89.1363H39.324V87.7131H41.0077V87.107H39.324V86.0843H41.0558V85.4781H38.6719V89.7425Z" fill="#0E121D"/>
<path d="M50.624 87.1489H48.7639V85.478H48.1064V89.7424H48.7639V87.7498H50.624V89.7424H51.2815V85.478H50.624V87.1489Z" fill="#0E121D"/>
<path d="M57.5675 86.0842V85.478H55.1836V89.7424H57.5675V89.1362H55.8357V87.713H57.5194V87.1068H55.8357V86.0842H57.5675Z" fill="#0E121D"/>
<path d="M62.7575 87.9239C63.0462 87.8606 63.276 87.7236 63.4524 87.5022C63.6288 87.2861 63.7143 87.0278 63.7143 86.722C63.7143 86.3372 63.5753 86.0263 63.2974 85.7891C63.0408 85.5782 62.6293 85.4728 62.0573 85.4728H61.293V89.7372H61.9451V87.9924H62.0627L63.2974 89.7372H64.0992L62.7575 87.9239ZM61.9451 87.4389V86.0842H62.1802C62.7789 86.0842 63.0836 86.3056 63.0836 86.7379C63.0836 87.2017 62.7736 87.4389 62.1535 87.4389H61.9451Z" fill="#0E121D"/>
<path d="M70.0001 86.0842V85.478H67.6162V89.7424H70.0001V89.1362H68.2683V87.713H69.952V87.1068H68.2683V86.0842H70.0001Z" fill="#0E121D"/>
<path d="M1.18086 80.0379C1.54968 80.391 1.98264 80.6651 2.49043 80.8602C2.99822 81.0552 3.55412 81.1501 4.16346 81.1501C4.74074 81.1501 5.28594 81.0394 5.79373 80.8233C6.30686 80.6019 6.73981 80.254 7.09259 79.7743L5.93805 78.9626C5.67614 79.2894 5.39819 79.5318 5.09886 79.6794C4.79953 79.827 4.48953 79.9061 4.17416 79.9061C3.76793 79.9061 3.39911 79.8323 3.06771 79.6847C2.73632 79.5371 2.45301 79.3368 2.21782 79.0838C1.98264 78.8308 1.79557 78.525 1.66729 78.1772C1.53901 77.8293 1.47484 77.4444 1.47484 77.028C1.47484 76.6432 1.53901 76.2795 1.66729 75.9422C1.79557 75.6048 1.97729 75.3149 2.21782 75.0619C2.45301 74.8089 2.73632 74.6138 3.06771 74.4715C3.39911 74.3292 3.76793 74.2554 4.17416 74.2554C4.44677 74.2554 4.71935 74.3081 4.99195 74.4082C5.26456 74.5084 5.54251 74.714 5.83115 75.0197L6.92154 74.229C6.53135 73.7863 6.10377 73.47 5.64943 73.2802C5.19509 73.0957 4.69798 73.0009 4.16881 73.0009C3.55947 73.0009 3.00357 73.0957 2.49578 73.2908C1.98799 73.4858 1.54968 73.7599 1.18621 74.1183C0.817398 74.4768 0.534113 74.909 0.325653 75.415C0.117192 75.9211 0.015625 76.4851 0.015625 77.1071C0.015625 77.7133 0.117192 78.2668 0.325653 78.7622C0.528768 79.2577 0.817393 79.6847 1.18086 80.0379Z" fill="#0E121D"/>
<path d="M11.0114 80.0378C11.3802 80.391 11.8132 80.6651 12.321 80.8602C12.8288 81.0552 13.3847 81.1501 13.994 81.1501C14.6087 81.1448 15.1699 81.0394 15.6831 80.8391C16.1962 80.6388 16.6345 80.3594 17.0033 80.0009C17.3721 79.6425 17.6608 79.2155 17.8692 78.7201C18.0777 78.2246 18.1792 77.6711 18.1792 77.0649C18.1792 76.4429 18.0777 75.8842 17.8692 75.3781C17.6608 74.8721 17.3721 74.4451 17.0033 74.0867C16.6345 73.7283 16.1908 73.4594 15.6831 73.2697C15.1699 73.0852 14.6087 72.9956 13.994 73.0008C13.3847 73.0008 12.8288 73.0957 12.321 73.2907C11.8132 73.4858 11.3749 73.7599 11.0114 74.1183C10.6426 74.4768 10.3593 74.909 10.1508 75.415C9.94239 75.9211 9.84082 76.4851 9.84082 77.1071C9.84082 77.7133 9.94239 78.2667 10.1508 78.7622C10.3593 79.2577 10.6426 79.6847 11.0114 80.0378ZM11.4978 75.9369C11.6261 75.5995 11.8078 75.3096 12.0484 75.0566C12.2836 74.8036 12.5669 74.6085 12.8983 74.4662C13.2297 74.3239 13.5931 74.2501 14.0047 74.2501C14.4109 74.2501 14.7797 74.3239 15.1165 74.4662C15.4479 74.6085 15.7365 74.8036 15.9717 75.0566C16.2069 75.3096 16.394 75.6048 16.5223 75.9369C16.6505 76.2742 16.7147 76.6327 16.7147 77.0227C16.7147 77.4392 16.6505 77.824 16.5223 78.1718C16.394 78.5197 16.2069 78.8255 15.9717 79.0785C15.7365 79.3315 15.4479 79.5371 15.1165 79.6794C14.7851 79.827 14.4109 79.9008 14.0047 79.9008C13.5984 79.9008 13.2297 79.827 12.8983 79.6794C12.5669 79.5318 12.2836 79.3315 12.0484 79.0785C11.8132 78.8255 11.6261 78.5197 11.4978 78.1718C11.3695 77.824 11.3054 77.4392 11.3054 77.0227C11.3054 76.6327 11.3695 76.2742 11.4978 75.9369Z" fill="#0E121D"/>
<path d="M23.8983 73.2013H21.7656V80.9552H23.0966V74.5138H23.118L25.5072 80.9552H26.4854L28.8693 74.5138H28.8961V80.9552H30.227V73.2013H28.1157L25.9937 78.6306L23.8983 73.2013Z" fill="#0E121D"/>
<path d="M35.6363 77.7449H36.6358C37.0527 77.7449 37.4483 77.7133 37.8278 77.6553C38.2073 77.5973 38.544 77.4867 38.8327 77.3232C39.1213 77.1598 39.3512 76.9279 39.5222 76.6275C39.6933 76.327 39.7788 75.9317 39.7788 75.4467C39.7788 75.0145 39.6986 74.656 39.5382 74.3661C39.3779 74.0762 39.1641 73.8496 38.9022 73.6756C38.6349 73.5017 38.3249 73.3804 37.9775 73.3066C37.6247 73.2328 37.2612 73.1959 36.8817 73.1959H34.2412V80.9498H35.6416V77.7449H35.6363ZM35.6363 74.3819H36.6358C36.8229 74.3819 37.0153 74.3925 37.2131 74.4136C37.4109 74.4346 37.5926 74.4874 37.7583 74.5612C37.9186 74.6402 38.0523 74.7456 38.1592 74.888C38.2607 75.0303 38.3142 75.22 38.3142 75.4625C38.3142 75.7261 38.2554 75.9317 38.1432 76.074C38.0256 76.2216 37.8812 76.327 37.6995 76.4008C37.5178 76.4746 37.32 76.5168 37.1062 76.5326C36.8924 76.5484 36.6839 76.5537 36.4861 76.5537H35.6416V74.3819H35.6363Z" fill="#0E121D"/>
<path d="M43.82 79.1789H47.2302L47.9625 80.9553H49.5607L46.1719 73.2014H44.9639L41.543 80.9553H43.1091L43.82 79.1789ZM45.5305 74.8407L46.7385 77.9929H44.2957L45.5305 74.8407Z" fill="#0E121D"/>
<path d="M52.6553 73.2013V80.9552H54.0557V75.0093H54.0771L57.963 80.9552H59.7429V73.2013H58.3425V78.9574H58.3211L54.5101 73.2013H52.6553Z" fill="#0E121D"/>
<path d="M65.6385 80.9553H67.0389V77.6345L69.9895 73.2014H68.3271L66.3708 76.2903L64.4358 73.2014H62.6826L65.6385 77.6345V80.9553Z" fill="#0E121D"/>
<path d="M59.6866 48.5811C58.8056 50.1317 57.766 51.5906 56.582 52.9332L56.6137 52.9649L55.5142 54.0679C50.6194 58.9909 44.1036 61.7043 37.165 61.7043C30.2545 61.7043 23.7564 59.012 18.8687 54.1243C13.9809 49.2366 11.2886 42.7384 11.2886 35.828C11.2886 35.317 11.3027 34.799 11.3345 34.2845C11.338 34.214 11.3415 34.1435 11.3485 34.0695V34.0484C11.3521 34.0026 11.3556 33.9532 11.3591 33.9074V33.8828C11.3662 33.7771 11.3767 33.6678 11.3873 33.5621C11.3944 33.474 11.4014 33.3824 11.412 33.2872C11.4261 33.1498 11.4402 33.0088 11.4543 32.8714C11.4648 32.7903 11.4719 32.6987 11.486 32.6106C11.5001 32.4978 11.5142 32.3675 11.5318 32.2406C11.5424 32.1701 11.5529 32.0996 11.5635 32.0292C11.5776 31.9129 11.5987 31.7825 11.6199 31.6556C11.6305 31.5887 11.6445 31.5111 11.6551 31.4371C11.6657 31.3737 11.6763 31.3103 11.6904 31.2468C11.7045 31.1658 11.7221 31.0706 11.7397 30.979C11.7538 30.898 11.7714 30.8099 11.789 30.7218C11.8102 30.6196 11.8278 30.5209 11.8525 30.4152C12.0005 29.7104 12.1837 29.0021 12.3916 28.3114L12.3987 28.2938C12.4234 28.2021 12.4515 28.1105 12.4833 28.0224C12.5079 27.9449 12.5326 27.8674 12.5573 27.7863C12.7053 27.3353 12.8674 26.8772 13.04 26.4367C13.0647 26.3768 13.0894 26.3098 13.114 26.2464C13.1422 26.1794 13.1669 26.1089 13.1986 26.0349C13.2339 25.9504 13.2726 25.8552 13.3114 25.76C13.3396 25.6896 13.3748 25.6085 13.4101 25.531L13.4242 25.4958C13.4735 25.39 13.5193 25.2808 13.5686 25.1751C13.6039 25.094 13.6391 25.0165 13.6779 24.939C14.3298 23.5294 15.1227 22.1691 16.0284 20.8935L16.1764 20.6926C16.2785 20.5517 16.3807 20.4107 16.4865 20.2768C16.5358 20.2134 16.5887 20.1429 16.6415 20.0759C16.7543 19.9279 16.8706 19.7834 16.9833 19.6425C17.0503 19.5614 17.1172 19.4733 17.1877 19.3923C17.2512 19.3148 17.3216 19.2302 17.3921 19.1491C17.4591 19.0681 17.5331 18.9835 17.6035 18.9025C17.6846 18.8108 17.7657 18.7157 17.8467 18.6241L14.8091 15.5829C9.76629 21.1331 7 28.3008 7 35.835C7 43.8943 10.1363 51.4673 15.8345 57.1655C21.5328 62.8637 29.1057 66 37.165 66C45.2489 66 52.843 62.8426 58.5448 57.1126C60.1728 55.4775 61.6071 53.6662 62.8158 51.7175L59.6866 48.5811Z" fill="#0E121D"/>
<path d="M21.0815 51.9183C25.3772 56.214 31.0931 58.5821 37.1684 58.5821C37.3587 58.5821 37.549 58.5786 37.7393 58.5751C37.8344 58.5751 37.926 58.5716 38.0212 58.568H38.0353C38.1762 58.561 38.3137 58.5539 38.4546 58.5469C38.5674 58.5398 38.6766 58.5328 38.7894 58.5257C38.8458 58.5222 38.8951 58.5187 38.9409 58.5152L39.0184 58.5081C39.1206 58.5011 39.2228 58.4905 39.3286 58.4799C39.4202 58.4729 39.5048 58.4658 39.5929 58.4553C39.6563 58.4482 39.7127 58.4412 39.7655 58.4376L39.8818 58.4235C39.9558 58.413 40.0298 58.4059 40.1074 58.3954C40.3893 58.3601 40.6641 58.3214 40.9355 58.2755C41.013 58.2614 41.087 58.2474 41.161 58.2368L41.1857 58.2333C41.2456 58.2227 41.3055 58.2121 41.3619 58.2015L41.3901 58.1945C41.4676 58.1804 41.5451 58.1663 41.6227 58.1487C41.827 58.1099 42.0279 58.0676 42.2252 58.0218C42.3591 57.9936 42.4931 57.9584 42.627 57.9267L42.6446 57.9231C42.6798 57.9161 42.7116 57.909 42.7468 57.8985C42.8455 57.8738 42.9336 57.8491 43.0252 57.828C43.1027 57.8068 43.1767 57.7892 43.2472 57.7681C43.3106 57.7505 43.367 57.7364 43.4199 57.7188C43.4727 57.7047 43.515 57.6941 43.5538 57.68L43.5855 57.6694C43.6419 57.6553 43.6983 57.6377 43.7546 57.6201C43.8498 57.5919 43.9308 57.5672 44.0119 57.539C44.0788 57.5179 44.1352 57.5003 44.1987 57.4827C44.3889 57.4192 44.5792 57.3558 44.766 57.2888C44.8189 57.2712 44.8682 57.2536 44.9175 57.236L44.9563 57.2219C45.0232 57.1972 45.0832 57.1761 45.1395 57.1549C45.2347 57.1197 45.3157 57.088 45.4003 57.0562C45.4708 57.0281 45.5342 57.0069 45.5941 56.9823C45.7104 56.9364 45.8162 56.8942 45.9219 56.8483L46.239 56.7144C46.3377 56.6721 46.4364 56.6299 46.528 56.5876C46.5844 56.5629 46.6302 56.5418 46.6795 56.5206L46.7253 56.4995C46.8028 56.4642 46.8804 56.4255 46.9579 56.3902C47.4371 56.1612 47.9094 55.918 48.364 55.6572C48.4133 55.6291 48.4591 55.6009 48.5084 55.5762C48.6142 55.5163 48.7199 55.4529 48.8221 55.393L49.3436 55.0723C49.5727 54.9243 49.8123 54.7692 50.0695 54.593C50.14 54.5437 50.2105 54.4943 50.281 54.445L50.3092 54.4239C50.362 54.3851 50.4149 54.3499 50.4678 54.3111L50.4818 54.3005C50.5206 54.2723 50.5594 54.2441 50.5981 54.2159L50.6122 54.2054C50.6792 54.1596 50.7426 54.1102 50.8061 54.0609C50.8801 54.008 50.9505 53.9517 51.0175 53.8988C51.0668 53.86 51.1056 53.8283 51.1479 53.7966L51.1972 53.7578C51.2677 53.7015 51.3417 53.6451 51.4122 53.5852C51.4862 53.5253 51.5602 53.4654 51.6306 53.409L51.6483 53.3949C51.7857 53.2821 51.9196 53.1693 52.0571 53.0495C52.0993 53.0143 52.1381 52.979 52.1804 52.9403L49.1392 49.8956C45.8091 52.7359 41.5839 54.29 37.1789 54.29C27.0018 54.29 18.7205 46.0087 18.7205 35.8315C18.7205 30.8698 20.6622 26.2147 24.1826 22.7224C25.8354 21.0838 27.8158 19.7553 29.9548 18.8426L26.7269 15.6146C24.6689 16.6824 22.7907 18.0532 21.1379 19.6954C16.807 23.9981 14.4248 29.728 14.4248 35.8315C14.4178 41.9068 16.7823 47.6191 21.0815 51.9183Z" fill="#13c296"/>
<path d="M62.9815 30.165C62.9815 22.1057 59.8451 14.5328 54.1469 8.83454C48.4487 3.13632 40.8722 0 32.8129 0C24.729 0 17.1349 3.15392 11.4331 8.88739C9.80507 10.519 8.37082 12.3338 7.16211 14.2826L10.2949 17.4153C11.1759 15.8648 12.2155 14.4059 13.3995 13.0633L13.3678 13.0316L14.4673 11.9286C19.3585 7.0056 25.8778 4.29217 32.8165 4.29217C39.7269 4.29217 46.2251 6.98447 51.1128 11.8722C56.0005 16.7599 58.6928 23.2545 58.6928 30.1685C58.6928 30.6795 58.6787 31.201 58.647 31.712C58.6435 31.779 58.6399 31.853 58.6329 31.927C58.6294 31.9798 58.6259 32.0327 58.6223 32.0855V32.1102C58.6153 32.2159 58.6047 32.3252 58.5941 32.4309C58.5871 32.519 58.58 32.6141 58.5695 32.7093C58.5554 32.8432 58.5413 32.9842 58.5272 33.1251C58.5166 33.2062 58.5096 33.2943 58.4955 33.3859C58.4814 33.4986 58.4673 33.6255 58.4497 33.7559C58.4391 33.8264 58.4285 33.8969 58.4179 33.9638C58.4038 34.0836 58.3827 34.2105 58.3616 34.3409C58.351 34.4078 58.3369 34.4854 58.3263 34.5594C58.3157 34.6228 58.3052 34.6862 58.2911 34.7496C58.277 34.8307 58.2594 34.9258 58.2417 35.0175C58.2276 35.0985 58.21 35.1866 58.1889 35.2747C58.1713 35.3734 58.1501 35.4756 58.1254 35.5813C57.9774 36.2861 57.7942 36.9979 57.5863 37.6851C57.5581 37.7803 57.5299 37.8789 57.4947 37.9776C57.47 38.0551 57.4453 38.1326 57.4207 38.2137C57.2726 38.6683 57.1105 39.1229 56.9379 39.5634C56.9132 39.6233 56.8886 39.6867 56.8639 39.7501C56.8357 39.8206 56.8075 39.8911 56.7793 39.9616C56.7441 40.0462 56.7053 40.1413 56.6665 40.2364C56.6384 40.3069 56.6031 40.388 56.5679 40.4655L56.5538 40.5007C56.5044 40.6065 56.4586 40.7157 56.4093 40.8214C56.374 40.9025 56.3388 40.98 56.3 41.0575C55.6481 42.4671 54.8552 43.8273 53.9496 45.103L53.8051 45.3039C53.6994 45.4484 53.5972 45.5858 53.495 45.7197C53.4457 45.7867 53.3928 45.8536 53.3399 45.9206C53.2272 46.0686 53.1144 46.213 52.9981 46.354C52.9311 46.4351 52.8642 46.5232 52.7937 46.6042C52.7338 46.6782 52.6704 46.7558 52.6034 46.8333L52.5893 46.8474C52.5189 46.9284 52.4484 47.013 52.3744 47.094C52.2933 47.1857 52.2123 47.2808 52.1312 47.3724L55.1689 50.4136C60.2152 44.8704 62.9815 37.7027 62.9815 30.165Z" fill="#13c296"/>
<path d="M40.0402 47.1575L43.2681 50.3854C45.3261 49.3176 47.2044 47.9468 48.8571 46.3047C53.1881 42.0019 55.5702 36.272 55.5702 30.1685C55.5702 24.0932 53.2022 18.3774 48.9065 14.0817C44.6108 9.78601 38.8949 7.41791 32.8196 7.41791C32.6293 7.41791 32.439 7.42144 32.2487 7.42496C32.1536 7.42496 32.062 7.42849 31.9668 7.43202H31.9528C31.8118 7.43907 31.6744 7.44611 31.5334 7.45316C31.4206 7.46021 31.3114 7.46726 31.1986 7.4743C31.1422 7.47783 31.0929 7.48134 31.0471 7.48486L30.9696 7.49192C30.8709 7.49897 30.7652 7.50954 30.663 7.52012C30.5714 7.53069 30.4868 7.53772 30.3987 7.54829C30.3352 7.55534 30.2789 7.56238 30.226 7.56591L30.1379 7.57649C30.1273 7.57649 30.1168 7.58002 30.1097 7.58002C30.0357 7.58706 29.9617 7.59764 29.8877 7.60821C29.6058 7.64345 29.3309 7.68573 29.0596 7.72802C28.9821 7.74211 28.908 7.75268 28.834 7.76678L28.8094 7.7703C28.7495 7.78087 28.6931 7.79146 28.6367 7.80203L28.5979 7.80906C28.5239 7.82316 28.4499 7.83727 28.3724 7.85137C28.161 7.89013 27.9601 7.93241 27.7628 7.97822C27.6289 8.00642 27.4949 8.04164 27.361 8.07336L27.3434 8.07688C27.3082 8.08393 27.2765 8.09098 27.2412 8.10155C27.1426 8.12622 27.0545 8.15089 26.9628 8.17204C26.8853 8.19318 26.8148 8.2108 26.7408 8.23194C26.6774 8.24956 26.621 8.26366 26.5646 8.28128C26.5118 8.29538 26.4695 8.30947 26.4307 8.32004L26.399 8.33062C26.3426 8.34472 26.2862 8.36234 26.2299 8.37996C26.1347 8.40815 26.0536 8.43281 25.9726 8.461C25.9056 8.48215 25.8493 8.49976 25.7858 8.51738C25.5955 8.58081 25.4053 8.64424 25.2185 8.71119C25.1656 8.72881 25.1198 8.74644 25.0705 8.76406L25.0282 8.77815C24.9648 8.80281 24.9084 8.82043 24.852 8.8451C24.7533 8.88034 24.6687 8.91207 24.5842 8.94731C24.5137 8.9755 24.4538 9.00016 24.3903 9.02483C24.2741 9.07064 24.1683 9.11293 24.0626 9.15874L23.7455 9.29265C23.6468 9.33494 23.5517 9.37722 23.4565 9.41951C23.4037 9.44418 23.3543 9.46532 23.305 9.48646L23.2592 9.50761C23.1816 9.54285 23.1041 9.58161 23.0266 9.61685C22.5473 9.8459 22.0751 10.0891 21.6205 10.3498C21.5677 10.378 21.5254 10.4027 21.476 10.4309C21.3774 10.4873 21.2752 10.5472 21.18 10.6036L20.8523 10.8044C20.7854 10.8467 20.7149 10.8925 20.6444 10.9348C20.4118 11.0828 20.1757 11.2379 19.922 11.4141C19.855 11.4599 19.7916 11.5057 19.7282 11.548L19.6859 11.5762C19.626 11.6184 19.5731 11.6572 19.5203 11.696L19.4991 11.7101C19.4639 11.7383 19.4286 11.7629 19.3899 11.7911L19.3758 11.8017C19.3088 11.8475 19.2454 11.8969 19.182 11.9462C19.108 11.9991 19.041 12.0554 18.9705 12.1083C18.9212 12.147 18.8789 12.1788 18.8401 12.2105L18.7908 12.2492C18.7203 12.3056 18.6463 12.362 18.5758 12.4219C18.4948 12.4853 18.4173 12.5523 18.3397 12.6157C18.2023 12.7285 18.0684 12.8448 17.9309 12.9611C17.8887 12.9963 17.8499 13.0316 17.8076 13.0703L20.8523 16.115C24.1824 13.2747 28.4077 11.7171 32.8126 11.7171C42.9898 11.7171 51.271 19.9984 51.271 30.1756C51.271 35.1373 49.3293 39.7924 45.8089 43.2847C44.1562 44.9127 42.1757 46.2448 40.0402 47.1575Z" fill="#0E121D"/>
</svg>
